<?xml version="1.0" encoding="utf-8"?>
<!-- Generator: Adobe Illustrator 23.0.2, SVG Export Plug-In . SVG Version: 6.00 Build 0)  -->
<svg version="1.1" id="Layer_1" xmlns="http://www.w3.org/2000/svg" xmlns:xlink="http://www.w3.org/1999/xlink" x="0px" y="0px"
	 viewBox="0 0 560 288" style="enable-background:new 0 0 560 288;" xml:space="preserve">
<style type="text/css">
	.st0{fill:#232323;}
	.st1{fill:#F47105;}
	.st2{fill:none;}
	.st3{fill:#FFFFFF;}
	.st4{font-family:'GothamNarrow-Book';}
	.st5{font-size:48px;}
</style>
<path class="st0" d="M559.9,260.58c-1.63-2.15-2.04-4.66-2.7-7.08c-2.65-9.59-8.18-17.05-19.11-20.94
	c-5.48-1.95-10.56-4.81-16.08-6.65c-20.69-6.9-38.49-17.1-51.75-32.96c-4.64-5.54-11.12-9.1-18.94-10.16
	c-13.57-1.85-22.34-8.38-29.03-18.9c-12.59-19.83-28.95-36.25-53.16-46.82c-22.83-9.97-44.29-22.4-65.97-34.29
	c-20.06-11-47.15-6.66-58.4,2.1c-7.5,5.84-15.03,11.65-22.16,17.82c-9.75,8.43-20.77,15.08-33.35,19.77
	c-14.98,5.59-28.87,12.63-40.8,22.52c-8.86,7.35-19.17,12.87-30.72,16.42c-15.52,4.78-28.65,12.01-36.86,25.13
	c-2.93,4.67-7.69,8.33-12.27,11.94c-10.83,8.55-24.06,13.49-36.92,19.01c-7.98,3.43-14.37,8.23-17.97,15.52
	c-4.54,9.19-9.07,18.39-13.61,27.59L0,288h560L559.9,260.58z"/>
<g>
	<g>
		<path class="st1" d="M32.62,164.06h49.75l4.75,4.13l0.25,30l-5,7.5l-6.63-0.13l14.75,26H70.75L56,205.94l-5.75,0.13v25.5H32.62
			v-66.75V164.06z M49.62,179.69v11.38h18.62v-11.38H49.62z"/>
		<path class="st1" d="M106.25,164.06h39.88l5.25,5.75v44.88l-10.88,16.88h-39.63l-4-6.25v-43.88L106.25,164.06z M113.62,180.31
			v35.38h19.63v-35.38H113.62z"/>
		<path class="st1" d="M430.62,163.44h39.88l5.25,5.75v44.88l-10.88,16.88h-39.63l-4-6.25v-43.88L430.62,163.44z M437.62,179.5
			v35.38h19.63V179.5H437.62z"/>
		<polygon class="st1" points="197.37,184.81 215.5,184.81 215.5,168.94 210.25,164.06 170.25,164.06 160.37,181.19 160.37,227.06 
			165.62,231.56 204.75,231.56 215.5,215.06 215.5,205.69 196.87,205.81 197,215.69 178.25,215.69 178.12,180.31 197.25,180.31 		
			"/>
		<polygon class="st1" points="224.12,231.56 242.37,231.56 242.37,205.69 248.5,205.69 262.87,231.56 282.75,231.56 262,194.94 
			280,164.06 258.87,164.06 244.5,189.94 242.25,189.94 242.12,164.06 224.12,163.69 		"/>
		<path class="st1" d="M288.12,163.69c0.63,0,18.38,0.38,18.38,0.38v12.63l8.63,14.25l9.38-15.38v-11.5h18.75v16l-17.88,30.25
			l0.25,21.25h-19.5l-0.25-21.38l-17.75-29.25V163.69z"/>
		<polygon class="st1" points="363.25,163.69 363.25,180.19 378.62,180.19 378.62,231.56 398.12,231.56 398.12,179.81 
			410.87,179.56 421.25,163.69 		"/>
		<path class="st1" d="M483.62,181.69l10.13-18h38.13l4.63,5.5v31.75l-4.25,5.13h-30.38l0.25,24.88l-18.5,0.62V181.69z
			 M501.87,180.19v9.63h16.63v-9.63H501.87z"/>
		<rect x="21.56" y="155.61" class="st2" width="526.63" height="83.15"/>
	</g>
	<rect x="58.33" y="241.5" class="st2" width="436.63" height="43.25"/>
	<text transform="matrix(1 0 0 1 58.3331 276.1553)"><tspan x="0" y="0" class="st3 st4 st5">COMPUTER SER</tspan><tspan x="337.77" y="0" class="st3 st4 st5">-</tspan></text>
</g>
<g>
	<path class="st1" d="M277,12.73c11.43,0.06,22.1,2.93,31.94,8.78c4.16,2.48,7.97,5.42,11.45,8.8c0.25,0.24,0.55,0.45,0.78,0.71
		c0.81,0.97,0.73,2.14-0.23,3.11c-2.71,2.73-5.43,5.46-8.17,8.17c-0.31,0.31-0.72,0.56-1.14,0.71c-0.93,0.33-1.7-0.07-2.35-0.72
		c-1.93-1.89-3.99-3.61-6.21-5.14c-4.34-2.99-9.04-5.17-14.13-6.53c-6.16-1.64-12.41-1.99-18.72-1.07
		c-8.04,1.18-15.27,4.27-21.65,9.3c-1.4,1.1-2.69,2.33-4.02,3.52c-1.09,0.98-2.33,1-3.36-0.02c-2.73-2.72-5.45-5.44-8.17-8.17
		c-1.07-1.07-1.04-2.38,0.04-3.44c5.05-4.96,10.74-9.02,17.14-12.04c5.15-2.44,10.54-4.13,16.17-5.08
		C269.89,13.03,273.43,12.75,277,12.73z"/>
	<path class="st1" d="M276.7,33.21c9.84,0.23,18.62,3.29,26.32,9.42c1.18,0.94,2.29,1.97,3.4,3c0.86,0.8,0.83,2.17-0.05,3.06
		c-1.64,1.67-3.3,3.32-4.96,4.97c-0.97,0.97-1.93,1.93-2.9,2.9c-1.35,1.35-2.41,1.38-3.81,0.06c-1.6-1.51-3.34-2.84-5.27-3.92
		c-3.35-1.89-6.94-2.96-10.78-3.26c-3.26-0.25-6.46,0.07-9.58,1.01c-3.76,1.14-7.1,3.03-10,5.7c-0.3,0.28-0.61,0.57-0.92,0.84
		c-0.88,0.76-2.18,0.78-3-0.03c-2.74-2.71-5.47-5.42-8.17-8.17c-1.03-1.05-0.96-2.31,0.1-3.34c6.36-6.22,13.91-10.12,22.71-11.52
		C272.07,33.56,274.4,33.44,276.7,33.21z"/>
	<path class="st1" d="M290.45,60.85c-4.65,4.16-9.26,8.28-13.93,12.46c-4.52-4.23-9.01-8.44-13.51-12.65
		C271.68,53.27,282.96,54.43,290.45,60.85z"/>
</g>
</svg>
